<svg width="44" height="44" viewBox="0 0 44 44" fill="none" xmlns="http://www.w3.org/2000/svg">
<path d="M22 23.5C22.8284 23.5 23.5 22.8284 23.5 22C23.5 21.1716 22.8284 20.5 22 20.5C21.1716 20.5 20.5 21.1716 20.5 22C20.5 22.8284 21.1716 23.5 22 23.5Z" stroke="#9095A0" stroke-miterlimit="10" stroke-linecap="round" stroke-linejoin="round"/>
<path d="M28 23.5C28.8284 23.5 29.5 22.8284 29.5 22C29.5 21.1716 28.8284 20.5 28 20.5C27.1716 20.5 26.5 21.1716 26.5 22C26.5 22.8284 27.1716 23.5 28 23.5Z" stroke="#9095A0" stroke-miterlimit="10" stroke-linecap="round" stroke-linejoin="round"/>
<path d="M16 23.5C16.8284 23.5 17.5 22.8284 17.5 22C17.5 21.1716 16.8284 20.5 16 20.5C15.1716 20.5 14.5 21.1716 14.5 22C14.5 22.8284 15.1716 23.5 16 23.5Z" stroke="#9095A0" stroke-miterlimit="10" stroke-linecap="round" stroke-linejoin="round"/>
</svg>
